<?xml version="1.0" standalone="no"?>
<!DOCTYPE svg PUBLIC "-//W3C//DTD SVG 20010904//EN"
 "http://www.w3.org/TR/2001/REC-SVG-20010904/DTD/svg10.dtd">
<svg version="1.0" xmlns="http://www.w3.org/2000/svg"
 width="256.000000pt" height="256.000000pt" viewBox="0 0 256.000000 256.000000"
 preserveAspectRatio="xMidYMid meet">
<metadata>
Created by potrace 1.11, written by Peter Selinger 2001-2013
</metadata>
<g transform="translate(0.000000,256.000000) scale(0.100000,-0.100000)"
fill="#000000" stroke="none">
<path d="M1065 2544 c-268 -46 -497 -166 -693 -364 -177 -178 -288 -379 -344
-625 -17 -70 -21 -126 -22 -255 -1 -91 2 -185 6 -210 4 -25 10 -61 14 -80 11
-69 76 -247 119 -327 118 -223 337 -438 560 -550 81 -41 213 -87 310 -108 93
-20 347 -28 445 -14 324 46 597 202 818 467 136 165 231 374 265 587 21 130
16 374 -11 490 -54 239 -162 440 -328 610 -192 197 -401 314 -659 370 -105 23
-370 28 -480 9z"/>
</g>
</svg>
