<svg xmlns="http://www.w3.org/2000/svg" viewBox="0 0 432.44 90.23"><defs><style>.a,.c{fill:#1c0172;}.b{fill:#4608ad;}.b,.c{stroke:#fff;stroke-miterlimit:10;}.d{fill:#fff;}</style></defs><path class="a" d="M100.37,26.82c.59,0,1.32.09,2.18.18a22,22,0,0,1,2.68.43A15,15,0,0,1,109.41,29a3.29,3.29,0,0,1,1.9,3,3.9,3.9,0,0,1-1,2.64,3.46,3.46,0,0,1-2.7,1.13,7.34,7.34,0,0,1-.81,0,7.73,7.73,0,0,1-.81-.16c-.26-.1-.53-.19-.81-.28l-.86-.28c-.61-.21-1.24-.39-1.87-.54a10.08,10.08,0,0,0-2.26-.23A6,6,0,0,0,97,35.1a2.73,2.73,0,0,0-1.39,2.48,2.29,2.29,0,0,0,1.45,2.08A18.25,18.25,0,0,0,100.61,41c.67.2,1.36.4,2.06.58l2.18.59a21.08,21.08,0,0,1,6.42,3.36q2.91,2.23,2.91,7.2a10.25,10.25,0,0,1-4.25,8.67,16.33,16.33,0,0,1-10,3.18,23,23,0,0,1-2.62-.11,28.84,28.84,0,0,1-3.07-.35,19,19,0,0,1-5.42-1.67,3.8,3.8,0,0,1-2.45-3.56,3.62,3.62,0,0,1,1-2.57,3.58,3.58,0,0,1,2.73-1.06,7.55,7.55,0,0,1,2.06.3l2.24.67a25.52,25.52,0,0,0,2.45.72,11.6,11.6,0,0,0,2.63.31A6.26,6.26,0,0,0,103.72,56a4,4,0,0,0,1.45-3.15,2.74,2.74,0,0,0-1.79-2.59A23.83,23.83,0,0,0,99,48.72l-1.56-.41c-.53-.14-1.06-.29-1.62-.46a21.83,21.83,0,0,1-6.42-2.93c-1.94-1.3-2.91-3.43-2.91-6.41A10.11,10.11,0,0,1,90.61,30a15.72,15.72,0,0,1,9.72-3.12Z" transform="translate(0.03)"/><path class="a" d="M117.79,60.09V31.89a4.75,4.75,0,0,1,1.06-3.15,4.07,4.07,0,0,1,3.29-1.26L136,27.43a4,4,0,0,1,3,1.16A3.55,3.55,0,0,1,140,31v.15a3.47,3.47,0,0,1-1.06,2.34,3.83,3.83,0,0,1-2.9,1H126.2V42h9.16a4.11,4.11,0,0,1,3.07,1.15,3.59,3.59,0,0,1,1,2.44v.15a3.59,3.59,0,0,1-1.09,2.34,4,4,0,0,1-3,1h-9.16v7.74h10.33a3.94,3.94,0,0,1,3,1.15,3.59,3.59,0,0,1,1,2.44v.15a3.51,3.51,0,0,1-1.06,2.31,3.88,3.88,0,0,1-2.91,1h-14.4a4.61,4.61,0,0,1-3.07-1,3.43,3.43,0,0,1-1.23-2.77Z" transform="translate(0.03)"/><path class="a" d="M143.61,60.23V31.43a3.8,3.8,0,0,1,1.11-2.87,4.39,4.39,0,0,1,3.19-1.08l9.82-.05q6.48.06,10.19,2.82t3.72,8.82a8.08,8.08,0,0,1-3,6.64,14.76,14.76,0,0,1-7.31,3L170.82,58a4,4,0,0,1,.86,1.18,2.56,2.56,0,0,1,.26,1.12A3.76,3.76,0,0,1,170.76,63a4,4,0,0,1-3,1.21,4.63,4.63,0,0,1-1.4-.21,3,3,0,0,1-1-.38,4.34,4.34,0,0,1-.86-.69L152.1,49.12H152V60.23a3.7,3.7,0,0,1-1.2,3,4.84,4.84,0,0,1-6,0,3.6,3.6,0,0,1-1.2-2.92ZM152,43.57h5.75a5.47,5.47,0,0,0,3.74-1.15,4.15,4.15,0,0,0,1.46-3.36,4,4,0,0,0-1.46-3.36,5.85,5.85,0,0,0-3.74-1.15H152Z" transform="translate(0.03)"/><path class="a" d="M174.68,60.23V31.43a3.74,3.74,0,0,1,1.15-2.84A4.44,4.44,0,0,1,179,27.48l9.88-.05a15.64,15.64,0,0,1,10.21,3.44,11,11,0,0,1,4.08,8.86,10.76,10.76,0,0,1-4.1,8.87,15.3,15.3,0,0,1-9.86,3.29h-6.2v8.34a3.66,3.66,0,0,1-1.2,3,4.87,4.87,0,0,1-6,0,3.6,3.6,0,0,1-1.2-2.92Zm8.37-15.17h5.7a5.47,5.47,0,0,0,4.19-1.52,5.58,5.58,0,0,0,0-7.74,5.71,5.71,0,0,0-4.19-1.57l-5.7,0Z" transform="translate(0.03)"/><path class="a" d="M218.68,59,229.9,31.07a7.19,7.19,0,0,1,2.29-3,6.27,6.27,0,0,1,7.42,0,7.23,7.23,0,0,1,2.24,3.05L252.79,59a5.22,5.22,0,0,1,.44,1.95,3,3,0,0,1-1.14,2.41,4.8,4.8,0,0,1-5.39.18,4.45,4.45,0,0,1-1.39-1.87l-1.7-4.87h-15.5l-1.67,4.76a4.09,4.09,0,0,1-1.34,2,4.27,4.27,0,0,1-2.68.74,4.46,4.46,0,0,1-2.91-1,3.12,3.12,0,0,1-1.23-2.54,4.37,4.37,0,0,1,.06-.72,2.26,2.26,0,0,1,.17-.56,2,2,0,0,0,.1-.21.31.31,0,0,1,.09-.18Zm11.83-9.28h10.61l-5.19-14.87h-.12Z" transform="translate(0.03)"/><path class="a" d="M255.61,60.13V40.41a3.9,3.9,0,0,1,3.71-4.06h.29a4.1,4.1,0,0,1,2.52.72,3.05,3.05,0,0,1,1.17,2,7.45,7.45,0,0,1,3-2.26A12.45,12.45,0,0,1,271,36a11.89,11.89,0,0,1,7.87,2.62A9.05,9.05,0,0,1,282,46V60.13a4.1,4.1,0,0,1-6.9,3,3.89,3.89,0,0,1-1.06-2.9v-13a4.61,4.61,0,0,0-1.54-3.77,5.72,5.72,0,0,0-3.71-1.23A4.84,4.84,0,0,0,265,43.69a5.12,5.12,0,0,0-1.34,3.61V60.14a4.06,4.06,0,0,1-1.12,3,4.34,4.34,0,0,1-5.78,0,3.93,3.93,0,0,1-1.17-2.91Z" transform="translate(0.03)"/><path class="a" d="M314.15,41.13v19.1a6.51,6.51,0,0,1-.06.88,4.46,4.46,0,0,1-.92,2.15,4.58,4.58,0,0,1-5.44.16,5.33,5.33,0,0,1-1.29-2.26A10.45,10.45,0,0,1,303,63.7a10.07,10.07,0,0,1-4.19.85,12.58,12.58,0,0,1-9.46-4,14.11,14.11,0,0,1-3.83-10.2,14.29,14.29,0,0,1,3.89-10.22,12.42,12.42,0,0,1,9.4-4.11,11.17,11.17,0,0,1,4.27.84,7.94,7.94,0,0,1,3.38,2.6,3.28,3.28,0,0,1,1.29-2.23,4,4,0,0,1,2.56-.89,3.46,3.46,0,0,1,2.88,1,4.64,4.64,0,0,1,.92,2.19,6.36,6.36,0,0,1,.06.87v.72Zm-20.61,9.22v.48a2,2,0,0,0,.06.49,8.75,8.75,0,0,0,1.76,4.46,5.3,5.3,0,0,0,4.55,2,5.13,5.13,0,0,0,4.41-2,8.83,8.83,0,0,0,1.73-4.46,2,2,0,0,0,.06-.49V50.4a4.86,4.86,0,0,0,0-.54,5.81,5.81,0,0,1,0-.59,8.8,8.8,0,0,0-1.79-4.41,5.09,5.09,0,0,0-4.35-2,5.36,5.36,0,0,0-4.5,2,8.81,8.81,0,0,0-1.86,4.37,5.81,5.81,0,0,1,0,.59,4.86,4.86,0,0,0,0,.54Z" transform="translate(0.03)"/><path class="a" d="M318.61,60.14V28.56a3.89,3.89,0,0,1,1.15-2.92,4.25,4.25,0,0,1,5.78,0,4,4,0,0,1,1.11,3v31.5a4,4,0,0,1-1.11,3,4.34,4.34,0,0,1-5.78,0,3.91,3.91,0,0,1-1.15-2.91Z" transform="translate(0.03)"/><path class="a" d="M329.11,41.39a3.32,3.32,0,0,1-.25-.83,5.55,5.55,0,0,1-.09-1,2.59,2.59,0,0,1,.87-2,4.86,4.86,0,0,1,2-1.13,3.5,3.5,0,0,1,.45-.07h.44a4.46,4.46,0,0,1,2.49.69A4,4,0,0,1,336.55,39l5.53,13.84L348,38.92a4.2,4.2,0,0,1,1.54-1.87,4.28,4.28,0,0,1,2.48-.69h.45a3.11,3.11,0,0,1,.44.07,4.86,4.86,0,0,1,2,1.13,2.59,2.59,0,0,1,.9,2,5.55,5.55,0,0,1-.09,1,3.06,3.06,0,0,1-.3.88L342,72.23a6.4,6.4,0,0,1-1.42,2,3.36,3.36,0,0,1-2.38.87,4.41,4.41,0,0,1-3.12-1A3,3,0,0,1,334,71.92v-.36a2.16,2.16,0,0,0,0-.36,3.49,3.49,0,0,1,.2-.72c.09-.24.17-.47.25-.71l3.52-8Z" transform="translate(0.03)"/><path class="a" d="M357,59.42l12.59-16.3h-9.32a3.78,3.78,0,0,1-2.57-.8,3.21,3.21,0,0,1-.24-4.52l.24-.24a4,4,0,0,1,2.57-.85h18.25l.53.1a4.74,4.74,0,0,1,.65.16,2.4,2.4,0,0,1,1,.69,2,2,0,0,1,.45,1.41,3.48,3.48,0,0,1-.09.79,4.71,4.71,0,0,1-.19.64l-.25.36c-.1.14-.2.28-.31.41l-12.64,16.2H378.3a4.24,4.24,0,0,1,2.56.9,2.85,2.85,0,0,1,1.06,2.38,2.77,2.77,0,0,1-1.06,2.36,4,4,0,0,1-2.56.82H359.61a4.39,4.39,0,0,1-2.32-.59,2,2,0,0,1-1-1.87,2.34,2.34,0,0,1,.14-.87,4.55,4.55,0,0,1,.3-.72.65.65,0,0,0,.17-.2,2.12,2.12,0,0,0,.11-.21Z" transform="translate(0.03)"/><path class="a" d="M391.3,52.76a5.51,5.51,0,0,0,2.63,4.07,9.43,9.43,0,0,0,5,1.31,8.46,8.46,0,0,0,2.87-.46,19.7,19.7,0,0,0,2.43-1l2.07-1a4,4,0,0,1,1.73-.46,3.15,3.15,0,0,1,2.29,1,3,3,0,0,1,1,2.17c0,1.37-1.1,2.63-3.29,3.8a21.31,21.31,0,0,1-7.26,2.25l-1.31.11H398.2q-6.75,0-10.91-4a13.44,13.44,0,0,1-4.16-10.12,14.23,14.23,0,0,1,4-10,14.67,14.67,0,0,1,19.79-.94A15,15,0,0,1,411.69,47c.08.41.14.83.2,1.25a10.66,10.66,0,0,1,.08,1.26,3.29,3.29,0,0,1-.84,2.45,3.75,3.75,0,0,1-2.68.82Zm12.62-4.92a6.76,6.76,0,0,0-2-4,6.84,6.84,0,0,0-8.82,0,6.36,6.36,0,0,0-2,4Z" transform="translate(0.03)"/><path class="a" d="M414.7,60.13V40a3.14,3.14,0,0,1,1.2-2.62,4.83,4.83,0,0,1,2.65-1h.28a5.53,5.53,0,0,1,2.76.64,2.55,2.55,0,0,1,1.15,2.44l.11-.05a8.32,8.32,0,0,1,2.43-2.26,6.2,6.2,0,0,1,3.21-.77,4.25,4.25,0,0,1,2.68,1,3.6,3.6,0,0,1,1.23,3,2.13,2.13,0,0,1-.79,1.85,8,8,0,0,1-2,1l-.95.34-1,.38a.11.11,0,0,0-.08,0h-.08a21.68,21.68,0,0,0-3.21,1.75,3.46,3.46,0,0,0-1.48,3.13v11.3a4.06,4.06,0,0,1-1.12,3,4.34,4.34,0,0,1-5.78,0,3.94,3.94,0,0,1-1.14-3Z" transform="translate(0.03)"/><circle class="b" cx="38.9" cy="22.88" r="22.38"/><path class="c" d="M45.26,51.33H32.47a32,32,0,0,0-32,32v6.4H77.23v-6.4A32,32,0,0,0,45.26,51.33Z" transform="translate(0.03)"/><path class="d" d="M38.07,88,57.23,62q1.85-2.52,3.7-5c-2-.89-3.08-.19-3.08-.19L38.07,77.47c-2.32-2.83-4-4.92-5.19-6.53A12.42,12.42,0,0,0,31,68.83a12.91,12.91,0,0,0-2.88-1.92,6.18,6.18,0,0,0-3.27,0,6.34,6.34,0,0,0-2.88,1.72L24.71,72Z" transform="translate(0.03)"/></svg>